<?xml version="1.0" encoding="UTF-8"?>
<svg version="1.1" xmlns="http://www.w3.org/2000/svg" width="612" height="612">
<path d="M0 0 C201.96 0 403.92 0 612 0 C612 201.96 612 403.92 612 612 C410.04 612 208.08 612 0 612 C0 410.04 0 208.08 0 0 Z " fill="#FEFEFE" transform="translate(0,0)"/>
<path d="M0 0 C0 42.57 0 85.14 0 129 C-5.28 130.65 -10.56 132.3 -16 134 C-17.52109375 134.53367187 -19.0421875 135.06734375 -20.609375 135.6171875 C-26.68010719 137.6667082 -32.98577257 138.82647786 -39.25 140.125 C-40.50296875 140.38925781 -41.7559375 140.65351563 -43.046875 140.92578125 C-46.36327298 141.62378382 -49.68057936 142.3165262 -53 143 C-53.80042725 143.18989502 -54.60085449 143.37979004 -55.42553711 143.57543945 C-58.80547242 144.13283229 -62.06317516 144.11130209 -65.48828125 144.09765625 C-66.19147995 144.0962413 -66.89467865 144.09482635 -67.6191864 144.09336853 C-69.85033544 144.08780109 -72.08138164 144.07525475 -74.3125 144.0625 C-75.83137875 144.05748079 -77.35025909 144.05291862 -78.86914062 144.04882812 C-82.57946012 144.03784236 -86.28972001 144.02060034 -90 144 C-90.08975098 143.44989258 -90.17950195 142.89978516 -90.27197266 142.33300781 C-96.28907888 105.8107466 -103.78291804 67.97443365 -119.1875 34.07421875 C-120 32 -120 32 -120 29 C-103.10195039 24.29655162 -86.20023776 19.71413996 -69.12939453 15.67236328 C-57.13608973 12.82368689 -45.20549508 9.74451469 -33.27362061 6.65023804 C-31.21861893 6.11830297 -29.16283805 5.58946891 -27.10693359 5.06103516 C-24.28314683 4.33488955 -21.46429522 3.59211731 -18.64697266 2.84130859 C-17.2295576 2.47077835 -15.81207926 2.10049005 -14.39453125 1.73046875 C-13.1413208 1.39813232 -11.88811035 1.0657959 -10.59692383 0.72338867 C-7 0 -7 0 0 0 Z " fill="#010101" transform="translate(300,313)"/>
<path d="M0 0 C5.51610608 0 8.19402697 0.12417146 13.125 1.6875 C18.76023174 3.37806952 24.39509682 4.85503017 30.125 6.1875 C50.05479158 10.85545062 70.02229602 15.61136329 89.70336914 21.24682617 C99.72990211 24.09960015 109.87828887 26.51145605 120 29 C118.21548827 35.27071921 116.16851339 41.39010114 113.89135742 47.49829102 C108.80998538 61.14028043 104.68006602 74.92126095 101 89 C100.67708984 90.22928223 100.67708984 90.22928223 100.34765625 91.48339844 C98.31514445 99.27137257 96.44696305 107.07978117 95 115 C93.84564453 114.89171875 93.84564453 114.89171875 92.66796875 114.78125 C67.00071712 112.70712866 42.93343379 114.27226581 18.05859375 120.97265625 C12.07975535 122.4860677 6.03050655 123.7077486 0 125 C0 83.75 0 42.5 0 0 Z " fill="#010101" transform="translate(312,313)"/>
<path d="M0 0 C2.26115602 0.58615946 4.52287448 1.17015362 6.78515625 1.75195312 C17.16150282 4.43507072 27.50426064 7.23592841 37.82434082 10.12747192 C44.36199078 11.95835974 50.92478745 13.6839916 57.5 15.375 C58.66023682 15.6745459 59.82047363 15.9740918 61.01586914 16.28271484 C68.93267017 18.32287099 76.85634661 20.33218998 84.79248047 22.29589844 C89.15498413 23.37808575 93.51467904 24.47155849 97.875 25.5625 C99.60415749 25.99482839 101.33332333 26.42712334 103.0625 26.859375 C104.320625 27.17390625 105.57875 27.4884375 106.875 27.8125 C108.39257664 32.52741367 107.22663099 35.05052678 105.12890625 39.42578125 C104.69396095 40.34740303 104.69396095 40.34740303 104.25022888 41.28764343 C103.32535446 43.23978325 102.38183986 45.18221371 101.4375 47.125 C100.80538737 48.45057498 100.17451361 49.77674147 99.54492188 51.10351562 C98.00257288 54.3468193 96.44338193 57.58169022 94.875 60.8125 C89.93842332 60.27881603 85.44582164 59.53402152 80.6875 58.0625 C73.91671113 56.05660854 67.09968491 54.39182966 60.21411133 52.82714844 C54.79084335 51.57344821 49.42786208 50.14828287 44.0703125 48.640625 C32.73977433 45.46292483 21.36545746 42.45420468 9.96569824 39.53510189 C6.65003841 38.68563007 3.33733066 37.82712011 0.02978516 36.9465332 C-23.05440428 30.81208457 -41.0256284 28.68760625 -64.13482666 35.00598145 C-68.5696075 36.20214388 -73.02734389 37.30279251 -77.4838562 38.41473389 C-82.48919991 39.66630822 -87.48873494 40.94032056 -92.48852539 42.21386719 C-96.28923587 43.18157665 -100.09085943 44.14563502 -103.89257812 45.109375 C-117.06993329 48.45719254 -130.22529441 51.87206773 -143.34281921 55.44784546 C-148.42704772 56.83146923 -153.51644585 58.19446145 -158.61791992 59.51318359 C-159.57800461 59.7626474 -160.53808929 60.01211121 -161.52726746 60.26913452 C-164.125 60.8125 -164.125 60.8125 -168.125 60.8125 C-168.40472656 60.04808594 -168.68445313 59.28367187 -168.97265625 58.49609375 C-171.61229549 51.44290981 -174.49589023 44.64998243 -177.88891602 37.92749023 C-179.6478392 34.32723244 -180.27171451 31.78351649 -180.125 27.8125 C-179.10684204 27.57128418 -179.10684204 27.57128418 -178.06811523 27.32519531 C-174.89906576 26.57309927 -171.73078615 25.81780489 -168.5625 25.0625 C-167.49580078 24.80984375 -166.42910156 24.5571875 -165.33007812 24.296875 C-156.88775755 22.28079844 -148.5030267 20.07985364 -140.125 17.8125 C-121.64792811 12.81891494 -103.14191845 7.98666846 -84.55786133 3.40625 C-82.86926688 2.98973131 -81.18070835 2.57306696 -79.4921875 2.15625 C-78.67580307 1.95475342 -77.85941864 1.75325684 -77.01829529 1.5456543 C-72.30805218 0.37610485 -67.62142347 -0.85530599 -62.9453125 -2.15625 C-61.89778809 -2.44097168 -60.85026367 -2.72569336 -59.77099609 -3.01904297 C-57.96861153 -3.51286777 -56.17087031 -4.0244145 -54.38134766 -4.56298828 C-35.91811074 -9.54443338 -17.93351794 -4.80578997 0 0 Z " fill="#030303" transform="translate(342.125,271.1875)"/>
<path d="M0 0 C58.74 0 117.48 0 178 0 C178 18.15 178 36.3 178 55 C171.04248788 53.7349978 164.2646896 52.43180943 157.4375 50.6875 C156.5825293 50.4716626 155.72755859 50.2558252 154.84667969 50.03344727 C148.37686714 48.38616283 141.94485545 46.61734612 135.51831055 44.80981445 C129.29923453 43.06627051 123.06090655 41.4255141 116.78125 39.9140625 C114.37834584 39.33319517 111.98139166 38.72665785 109.59375 38.0859375 C91.03870801 33.447177 74.30934835 36.45708519 56.09765625 41.19628906 C53.24781458 41.93570259 50.39286154 42.64371409 47.53125 43.3359375 C38.72500395 45.47442907 29.98172021 47.80433172 21.25756836 50.25488281 C4.3507082 55 4.3507082 55 0 55 C0 36.85 0 18.7 0 0 Z " fill="#030303" transform="translate(217,215)"/>
<path d="M0 0 C4.52768469 2.37304439 8.79519326 5.0936255 13 8 C9.22908755 9.25697082 7.91109037 8.51721448 4.1875 7.25 C-7.63571991 3.23400135 -19.1436315 1.48262079 -31.625 1.625 C-32.93895752 1.63587646 -34.25291504 1.64675293 -35.60668945 1.65795898 C-59.56173959 2.04705419 -82.64825769 7.85059947 -105.203125 15.75 C-111.98328058 17.98214998 -118.89376643 19.75145522 -125.7890625 21.58984375 C-129.86872067 22.68013495 -133.90230816 23.87926886 -137.9375 25.125 C-172.13314549 35.01938168 -208.80211327 36.28729053 -240.62109375 19.0625 C-248.77324507 14.45350985 -248.77324507 14.45350985 -250 12 C-246.02604445 12.66110166 -242.55465404 13.89959876 -238.8125 15.375 C-204.08602617 27.80304302 -165.55282574 19.05367073 -131.8203125 7.28125 C-124.50706578 4.76891618 -117.01150406 2.80555581 -109.56640625 0.72753906 C-107.20323572 0.05761439 -104.85096632 -0.64019613 -102.5 -1.3515625 C-90.90864384 -4.80519623 -79.21301885 -6.81578841 -67.25805664 -8.59863281 C-44.2535259 -12.6876639 -21.32912946 -9.76491779 0 0 Z " fill="#080808" transform="translate(427,447)"/>
<path d="M0 0 C35.64 0 71.28 0 108 0 C108 6.93 108 13.86 108 21 C72.36 21 36.72 21 0 21 C0 14.07 0 7.14 0 0 Z " fill="#060606" transform="translate(252,179)"/>
<path d="M0 0 C11.88 0 23.76 0 36 0 C36 10.56 36 21.12 36 32 C24.12 32 12.24 32 0 32 C0 21.44 0 10.88 0 0 Z " fill="#070707" transform="translate(288,133)"/>
<path d="M0 0 C3.3 1.98 6.6 3.96 10 6 C6.59068103 7.13643966 5.99664544 6.86747764 2.8125 5.5625 C2.09707031 5.27503906 1.38164062 4.98757813 0.64453125 4.69140625 C-0.16951172 4.34916016 -0.16951172 4.34916016 -1 4 C-0.67 2.68 -0.34 1.36 0 0 Z " fill="#1D1D1D" transform="translate(430,449)"/>
<path d="M0 0 C-0.66 1.98 -1.32 3.96 -2 6 C-3.32 6 -4.64 6 -6 6 C-6 4.35 -6 2.7 -6 1 C-3 0 -3 0 0 0 Z " fill="#1A1A1A" transform="translate(168,298)"/>
<path d="M0 0 C3.55780196 0.60990891 6.6828589 1.5783681 10 3 C9.67 3.99 9.34 4.98 9 6 C5.88802644 4.50164236 2.91164984 2.86022073 0 1 C0 0.67 0 0.34 0 0 Z " fill="#484848" transform="translate(177,459)"/>
<path d="M0 0 C2.31 0.33 4.62 0.66 7 1 C5.1875 2.5625 5.1875 2.5625 3 4 C2.01 3.67 1.02 3.34 0 3 C0 2.01 0 1.02 0 0 Z " fill="#1A1A1A" transform="translate(186,463)"/>
</svg>
